<?xml version="1.0" encoding="iso-8859-1"?>
<!-- Generator: Adobe Illustrator 19.0.0, SVG Export Plug-In . SVG Version: 6.00 Build 0)  -->
<svg version="1.1" id="Capa_1" xmlns="http://www.w3.org/2000/svg" xmlns:xlink="http://www.w3.org/1999/xlink" x="0px" y="0px"
	 viewBox="0 0 512 512" style="enable-background:new 0 0 512 512;" xml:space="preserve">
<circle style="fill:#87D7F5;" cx="256" cy="256" r="256"/>
<path style="fill:#BAEAF7;" d="M174.215,368.469h-19.854c-7.358,0-13.323,5.965-13.323,13.323s5.965,13.323,13.323,13.323h19.854
	c7.358,0,13.323-5.965,13.323-13.323S181.573,368.469,174.215,368.469z"/>
<path style="fill:#EDEFEF;" d="M229.537,378.237c0,0,27.167,19.5,41.167-17.167s-26.667-74.083-26.667-74.083l31-31.75l89.5,18.839
	c0,0,24.833,76.994-12.5,147.661s-160,59-178-21.5L229.537,378.237z"/>
<g>
	<path style="fill:#E0E2E2;" d="M244.038,286.987c0,0,40.667,37.417,26.667,74.083c-14,36.667-41.167,17.167-41.167,17.167
		c30.323,36.762,82.543,3.306,82.543-40.694s-30.014-80.826-30.014-80.826l0,0l-7.029-1.48L244.038,286.987z"/>
	<path style="fill:#E0E2E2;" d="M389.69,264.686c-17.25-26.694-27.373-55.788-31.957-71.106
		c-27.117-1.323-65.485-7.402-90.795-29.237c-0.158,0.621-0.31,1.245-0.454,1.872c-1.258,21.757,1.145,42.141,12.292,58.523h-0.002
		c0.001,0,0.001,0,0.002,0c0,0,11.858,10.503,0.233,32.808c41.092,19.07,86.583,17.324,105.919,15.407
		C389.419,272.506,391.927,268.148,389.69,264.686z"/>
</g>
<path style="fill:#CBD0D1;" d="M320.114,270.372c1.639-1.782,2.268-4.275,1.214-6.684c-13.024-29.765-19.438-60.793-22.507-81.157
	c-10.498-3.907-20.537-9.104-29.228-15.999c-0.988-0.285-1.979-0.576-2.973-0.876c-0.044,0.186-0.092,0.371-0.135,0.558
	c-1.258,21.757,1.145,42.141,12.292,58.523c0,0,11.858,10.503,0.233,32.808C292.599,263.852,306.667,267.872,320.114,270.372z"/>
<path style="fill:#EDEFEF;" d="M384.263,189.772c-49.885-66.792-5.417-137.901-54.449-174.035
	c-35.281-26-74.912-11.316-89.816-5.078c6.222-1.057,12.492-2.379,18.931,2.078c39.528,27.359,11.952,93.089,7.763,150.297
	c30.546,33.305,90.163,34.753,113.331,33.939C384.125,196.828,386.521,192.796,384.263,189.772z"/>
<path style="fill:#E0E2E2;" d="M276.364,5.286c-3.38-2.082-7.27-2.725-10.135-2.725c-11.502,1.729-20.493,5.695-26.233,8.097
	c6.222-1.057,12.492-2.379,18.931,2.078c39.528,27.359,11.952,93.089,7.763,150.297c8.711,9.498,19.79,16.398,31.71,21.4
	C301.339,114.396,326.036,35.881,276.364,5.286z"/>
<path style="fill:#EDEFEF;" d="M263.538,12.737c-17.677-13.876-38.167,8.333-38.167,8.333c0.009,0.013,0.018,0.026,0.026,0.039
	c40.252,1.54,28.564,49.348,24.641,73.961c-2.918,18.302-26.833,43.023-46.056,50.098c-12.976,15.633-16.444,28.569-16.444,28.569
	c54,7.5,51.5,65,51.5,65c17.5-17.5,42-14,42-14C245.038,164.737,312.371,51.07,263.538,12.737z"/>
<path style="fill:#E0E2E2;" d="M203.981,145.167c-12.976,15.633-16.444,28.569-16.444,28.569
	c14.053,1.952,24.273,7.294,31.713,14.124c6.559-27.955,19.783-57.353,28.146-84.228
	C240.063,120.373,220.33,139.151,203.981,145.167z"/>
<path style="fill:#EDEFEF;" d="M225.371,21.07l-30.47,15.91c-1.987,1.037-3.035,3.274-2.561,5.465l0.67,3.099
	c0.278,1.285-0.628,2.524-1.938,2.639c-6.617,0.584-24.879,2.563-33.982,7.247c-3.566,1.835-5.337,5.933-4.235,9.789l1.434,5.017
	c0,0-1.429,13.988,8.43,25.389c0.809,0.935,2.261,0.941,3.095,0.028c3.814-4.177,15.29-14.08,35.541-9.897
	c8.952,1.849,13.574,12.07,8.64,19.765c-4.231,6.598-13.07,12.287-31.388,10.087c-0.831-0.1-1.567,0.537-1.567,1.374v4.088
	l-4.925,3.202c-1.078,0.701-1.557,2.038-1.149,3.257c1.562,4.671,6.746,15.696,21.575,19.208c19,4.5,55.833-28.667,59.5-51.667
	C256.026,70.052,268.037,21.07,225.371,21.07z"/>
<path style="fill:#E0E2E2;" d="M243.812,452.557c-25.574-11.283-43.042-34.39-48.247-60.854l-21.527,8.534
	c13.595,60.802,86.895,82.323,138.043,58.771C289.475,464.114,264.864,461.845,243.812,452.557z"/>
<path style="fill:#569FDB;" d="M256,512c60.478,0,116.047-20.985,159.853-56.052c-18.828-10.135-40.319-15.906-63.105-15.905
	c-22.097,0-42.944,5.35-61.318,14.824c-22.282,11.489-48.578,11.489-70.859,0c-18.374-9.474-39.221-14.824-61.319-14.824
	c-22.786,0-44.277,5.77-63.105,15.905C139.954,491.015,195.522,512,256,512z"/>
<path style="fill:#4794C9;" d="M210.768,480.895c0-9.964,3.571-19.091,9.498-26.181c-18.3-9.377-39.037-14.672-61.013-14.672
	c-22.786,0-44.277,5.77-63.105,15.905c35.662,28.548,79.119,47.759,126.673,53.918C215.377,502.466,210.768,492.22,210.768,480.895z
	"/>
<path style="fill:#77BBE8;" d="M291.43,483.178c-22.282,11.489-48.578,11.489-70.859,0c-18.374-9.474-39.221-14.824-61.319-14.824
	c-13.107,0-25.783,1.919-37.773,5.47C160.569,498.022,206.648,512,256,512s95.432-13.978,134.521-38.176
	c-11.991-3.552-24.665-5.47-37.773-5.47C330.651,468.354,309.804,473.704,291.43,483.178z"/>
<path style="fill:#57ADDD;" d="M210.768,480.895c0-0.752,0.027-1.497,0.067-2.239c-15.878-6.63-33.3-10.301-51.583-10.301
	c-13.107,0-25.782,1.919-37.771,5.47c30.189,18.69,64.541,31.266,101.332,36.034C215.375,502.459,210.768,492.216,210.768,480.895z"
	/>
<path style="fill:#E1F4F9;" d="M211.623,91.245c-87.505,20.556-155.087,61.48-203.747,101.528C2.738,212.997,0,234.178,0,256
	c0,5.801,0.212,11.551,0.592,17.256C75.074,159.852,161.496,113.31,213.305,94.579C212.906,93.398,212.337,92.277,211.623,91.245z"
	/>
<path style="fill:#FFFFFF;" d="M212.595,92.884c-0.285-0.567-0.609-1.115-0.972-1.639c-87.505,20.556-155.087,61.48-203.747,101.528
	c-2.455,9.661-4.354,19.543-5.676,29.606C81.701,142.319,160.48,107.769,212.595,92.884z"/>
<path style="fill:#E0E2E2;" d="M207.229,52.364l11.079,2.665c5.139,1.236,10.332-1.828,11.735-6.924l1.299-4.716
	c0.913-3.314-2.547-6.133-5.608-4.571l-18.962,9.675C205.051,49.37,205.352,51.913,207.229,52.364z"/>
<path style="fill:#CBD0D1;" d="M221.839,47.555l-8.992-2.163l-6.077,3.1c-1.719,0.877-1.418,3.42,0.458,3.871l11.079,2.665
	c5.139,1.236,10.332-1.828,11.735-6.924l0.818-2.969C228.53,47.339,225.176,48.358,221.839,47.555z"/>
<g>
	<path style="fill:#E0E2E2;" d="M154.288,70.237c0,0-1.429,13.988,8.43,25.389c0.809,0.935,2.261,0.941,3.095,0.028
		c1.628-1.783,4.657-4.607,9.163-6.936c-5.823-10.06-4.442-16.123-2.879-19.044c0.861-1.609,1.133-3.477,0.741-5.259
		c-2.607-11.845,4.829-14.589,4.829-14.589h-0.001c-7.311,1.161-15.492,2.962-20.662,5.648c-3.528,1.833-5.243,5.923-4.151,9.745
		L154.288,70.237z"/>
	<path style="fill:#E0E2E2;" d="M192.538,146.737c6.773,1.604,15.812-1.593,24.807-7.395c-20.865,3.331-27.451-15.718-29.227-23.294
		c-2.848,0.109-6.004-0.019-9.514-0.44c-0.831-0.1-1.566,0.537-1.566,1.374v4.088l-4.926,3.202
		c-1.078,0.701-1.557,2.038-1.149,3.257C172.524,132.2,177.709,143.225,192.538,146.737z"/>
	<path style="fill:#E0E2E2;" d="M365.498,348.348c-4.398,0-7.978-3.579-7.978-7.978c0-4.142-3.357-7.5-7.5-7.5s-7.5,3.358-7.5,7.5
		c0,4.399-3.579,7.978-7.978,7.978c-4.4,0-7.979-3.579-7.979-7.978c0-4.142-3.357-7.5-7.5-7.5s-7.5,3.358-7.5,7.5
		c0,12.67,10.309,22.978,22.979,22.978c5.957,0,11.391-2.28,15.478-6.011c4.086,3.731,9.521,6.011,15.478,6.011
		c1.782,0,3.515-0.211,5.181-0.596c0.869-6.289,1.411-12.43,1.697-18.358C370.989,346.755,368.429,348.348,365.498,348.348z"/>
	<path style="fill:#E0E2E2;" d="M340.477,378.84c-4.143,0-7.5,3.358-7.5,7.5c0,4.399-3.579,7.978-7.978,7.978
		s-7.978-3.579-7.978-7.978c0-4.142-3.358-7.5-7.5-7.5c-4.143,0-7.5,3.358-7.5,7.5c0,12.67,10.309,22.978,22.978,22.978
		c12.67,0,22.978-10.308,22.978-22.978C347.977,382.198,344.62,378.84,340.477,378.84z"/>
</g>
<path style="fill:#EDEFEF;" d="M281.037,224.737c0,0,20.612,20.685-24.37,65.667c0,0,44.036-8.667,53.37,31.333
	c0,0,15.652,21.283-4.065,41c0,0-3.376,15.5-23.905,19.5c0,0-10.818,10.342-33.258,1.603c-1.987-0.774-2.9-3.066-2.002-5
	c3.246-6.995,8.763-23.367-3.411-35.467c-4.768-4.74-12.832-3.934-16.516,1.69c-4.345,6.634-7.091,17.577,2.657,33.174l-55.5,22
	c0,0-3.5-32.5,10-65.5c13.194-32.252,12.697-100.483-48.323-148.991c-2.001-1.591-1.587-4.755,0.778-5.725
	c7.286-2.99,21.189-7.236,34.045-2.951c0,0,5.5-3.333,17-3.333s51.5,5.333,51.5,65C239.037,238.737,255.037,218.737,281.037,224.737
	z"/>
<g>
	<path style="fill:#E0E2E2;" d="M194.554,364.811c1.298-10.874,3.978-23.769,9.285-36.741
		c13.194-32.253,12.697-100.484-48.325-148.993c-1.16-0.922-1.485-2.365-1.112-3.61c-7.2,0.665-13.674,2.816-17.908,4.553
		c-2.365,0.971-2.78,4.134-0.778,5.725c61.02,48.508,61.517,116.739,48.323,148.991c-13.5,33-10,65.5-10,65.5l21.527-8.534
		C193.854,383.001,193.464,373.938,194.554,364.811z"/>
	<path style="fill:#E0E2E2;" d="M249.451,334.875c-19.913-4.166-24.811,14.471-24.811,14.471l0,0
		c0.638-1.587,1.409-3.015,2.24-4.283c3.684-5.624,11.748-6.43,16.516-1.69c12.175,12.1,6.658,28.472,3.412,35.467
		C263.664,373.971,269.669,339.106,249.451,334.875z"/>
	<path style="fill:#E0E2E2;" d="M281.038,224.737c-26.084-6.02-41.899,13.932-42,14c0-27.525-8.514-43.482-18.814-52.692
		c16.611,34.443,10.027,66.381,7.543,75.584c-0.276,0.869-0.539,1.752-0.786,2.649c-0.583,2.114,2.146,3.525,3.513,1.81
		c10.026-12.576,32.754-36.61,55.161-29.174C284.981,228.695,281.038,224.737,281.038,224.737z"/>
</g>
<g>
	<path style="fill:#BAEAF7;" d="M155.662,315.177H115.46H72.308c-7.358,0-13.323-5.965-13.323-13.323s5.965-13.323,13.323-13.323
		H93.01c7.358,0,13.323-5.965,13.323-13.323s-5.965-13.323-13.323-13.323H0.075c1.107,49.063,16.019,94.713,41.002,133.23h55.368
		c7.358,0,13.323-5.965,13.323-13.323s-5.965-13.323-13.323-13.323h-5.611c-7.358,0-13.323-5.965-13.323-13.323
		s5.965-13.323,13.323-13.323h24.626h40.202c7.358,0,13.323-5.965,13.323-13.323S163.02,315.177,155.662,315.177z"/>
	<path style="fill:#BAEAF7;" d="M446.063,84.51h-44.465c-7.358,0-13.323,5.965-13.323,13.323s5.965,13.323,13.323,13.323h21.354
		c7.358,0,13.323,5.965,13.323,13.323s-5.965,13.323-13.323,13.323h-38.354c-7.358,0-13.323,5.965-13.323,13.323
		s5.965,13.323,13.323,13.323h84.854c7.358,0,13.323,5.965,13.323,13.323s-5.965,13.323-13.323,13.323h-46.854
		c-7.358,0-13.323,5.965-13.323,13.323s5.965,13.323,13.323,13.323h86.554C501.533,166.899,478.965,120.952,446.063,84.51z"/>
</g>
<g>
</g>
<g>
</g>
<g>
</g>
<g>
</g>
<g>
</g>
<g>
</g>
<g>
</g>
<g>
</g>
<g>
</g>
<g>
</g>
<g>
</g>
<g>
</g>
<g>
</g>
<g>
</g>
<g>
</g>
</svg>
